<svg xmlns="http://www.w3.org/2000/svg" viewBox="0 0 300 300" preserveAspectRatio="xMidYMid meet">
<g transform="translate(0,300) scale(0.1,-0.1)" fill="white" stroke="none">
<path d="M1630 2873 c0 -123 -62 -256 -169 -363 -113 -114 -236 -174 -386 -189 l-60 -6 -3 -172 -2 -173 -63 0 c-109 0 -276 -44 -391 -102 -327 -164 -540 -521 -523 -878 20 -425 308 -769 740 -882 107 -29 311 -31 436 -5 417 88 742 441 768 833 l6 94 -171 0 -171 0 -6 -37 c-16 -111 -28 -155 -64 -228 -113 -228 -344 -360 -601 -342 -164 12 -295 72 -411 188 -71 72 -136 188 -159 284 -15 64 -15 206 0 270 37 153 164 314 307 388 78 41 203 77 265 77 l38 0 0 169 0 169 68 6 c334 30 627 211 783 485 51 88 105 243 114 326 3 33 8 77 11 98 l6 37 -181 0 -181 0 0 -47z"/>
<path d="M2616 2863 c-33 -279 -243 -496 -525 -542 l-101 -16 0 -164 0 -164 93 6 c162 11 350 80 492 182 75 53 194 178 242 252 82 129 133 278 147 436 l7 67 -174 0 -174 0 -7 -57z"/>
<path d="M1640 1938 c0 -18 -7 -62 -16 -98 -40 -174 -165 -331 -324 -409 -83 -40 -192 -70 -257 -71 l-33 0 0 -171 0 -171 78 7 c479 44 863 415 899 868 l6 77 -177 0 -176 0 0 -32z"/>
</g>
</svg>
