<svg xmlns="http://www.w3.org/2000/svg" viewBox="0 0 550.000000 550.000000">
  <g transform="translate(0.000000,550.000000) scale(0.100000,-0.100000)">
    <path fill="#1D4AFF" d="M440 3710 l0 -385 475 -475 475 -475 0 385 0 385 -475 475 -475 475
0 -385z"/>
    <path fill="#1D4AFF" d="M440 2742 l0 -387 475 -475 475 -475 0 385 0 385 -475 477 -475 476
0 -386z"/>
    <path fill="#1D4AFF" d="M440 1780 l0 -380 382 0 383 0 -380 380 c-209 209 -381 380 -382 380
-2 0 -3 -171 -3 -380z"/>
    <path fill="#F54E00" d="M1400 3710 l0 -385 480 -480 480 -480 0 385 0 385 -480 480 -480 480
0 -385z"/>
    <path fill="#F54E00" d="M1410 2740 l1 -385 474 -479 475 -480 0 390 0 389 -475 475 -475 475
0 -385z"/>
    <path fill="#F54E00" d="M1410 1777 l0 -377 375 0 c206 0 375 1 375 3 0 1 -169 171 -375 377
l-375 375 0 -378z"/>
    <path fill="#F9BD2B" d="M2360 3708 l0 -383 477 -477 c263 -263 481 -478 485 -478 5 0 8 171
8 380 l0 379 -467 472 c-258 259 -476 475 -485 480 -17 9 -18 -12 -18 -373z"/>
    <path fill="#F9BD2B" d="M2367 2984 c-4 -75 -7 -246 -7 -378 l0 -241 478 -478 c262 -262 480
-477 485 -477 4 0 7 170 7 378 l0 377 -478 478 -479 479 -6 -138z"/>
    <path fill="#F9BD2B" d="M2365 1780 l0 -380 385 0 384 0 -379 380 c-209 209 -382 380 -385
380 -3 0 -5 -171 -5 -380z"/>
    <path fill="#000000" d="M3460 2197 l0 -797 800 0 800 0 0 154 0 153 -77 6 c-117 9 -241 55
-353 130 -25 16 -298 282 -607 591 l-563 561 0 -798z m559 -215 c80 -59 74
-200 -11 -252 -47 -28 -124 -27 -169 3 -112 74 -79 248 52 276 42 9 95 -2 128
-27z"/>
  </g>
</svg>